<svg xmlns="http://www.w3.org/2000/svg" version="1.1" xmlns:xlink="http://www.w3.org/1999/xlink" xmlns:svgjs="http://svgjs.dev/svgjs" width="1500" height="1500" viewBox="0 0 1500 1500"><rect width="1500" height="1500" fill="#000000"></rect><g transform="matrix(0.6666666666666666,0,0,0.6666666666666666,249.39393939393938,655.909592196384)"><svg viewBox="0 0 396 75" data-background-color="#111111" preserveAspectRatio="xMidYMid meet" height="284" width="1500" xmlns="http://www.w3.org/2000/svg" xmlns:xlink="http://www.w3.org/1999/xlink"><g id="tight-bounds" transform="matrix(1,0,0,1,0.2400000000000091,-0.22827155666615795)"><svg viewBox="0 0 395.52 75.45641882047373" height="75.45641882047373" width="395.52"><g><svg viewBox="0 0 434.08552696091704 82.81386358785649" height="75.45641882047373" width="395.52"><g><svg viewBox="0 0 356.12052 82.81386358785649" height="82.81386358785649" width="356.12052"><g><path d="M0 82.814v-82.814h356.121v82.814z" fill="#ffffff" stroke="transparent" stroke-width="0" rx="0%" data-fill-palette-color="tertiary"></path><path d="M3.283 79.531v-76.248h349.554v76.248z" fill="#000000" stroke="transparent" stroke-width="0" rx="0%" data-fill-palette-color="quaternary"></path><path d="M9.85 72.964v-63.114h336.421v63.114z" fill="#ffffff" stroke="transparent" stroke-width="0" data-fill-palette-color="tertiary"></path></g><g transform="matrix(1,0,0,1,19.69974,19.69974)" id="textblocktransform"><svg viewBox="0 0 316.72104 43.41438358785649" height="43.41438358785649" width="316.72104" id="textblock"><g><svg viewBox="0 0 316.72104 43.41438358785649" height="43.41438358785649" width="316.72104"><g transform="matrix(1,0,0,1,0,0)"><svg width="316.72104" viewBox="4.5 -37 271.71 37.25" height="43.41438358785649" data-palette-color="#111111"><path d="M13.5-1.35L4.5 0.05Q5.65-5.45 6.7-10.8L6.7-10.8Q7.15-13.05 7.6-15.5 8.05-17.95 8.47-20.33 8.9-22.7 9.22-24.93 9.55-27.15 9.8-29L9.8-29Q8.65-29.15 7.48-29.1 6.3-29.05 5.15-29.4L5.15-29.4Q5.2-30.2 5.2-31.25 5.2-32.3 5.25-33.35L5.25-33.35Q5.3-34.5 5.35-35.8L5.35-35.8Q6.65-35.7 7.95-35.65 9.25-35.6 10.55-35.6L10.55-35.6Q13.1-35.6 15.48-35.73 17.85-35.85 19.88-36.02 21.9-36.2 23.85-36.45L23.85-36.45 23.3-33.75Q23.05-32.6 22.83-31.4 22.6-30.2 22.4-29.35L22.4-29.35Q21.3-29.05 20.18-28.93 19.05-28.8 17.95-28.6L17.95-28.6Q17.6-26.9 17.2-24.83 16.8-22.75 16.43-20.53 16.05-18.3 15.7-16 15.35-13.7 15-11.6L15-11.6Q14.2-6.65 13.5-1.35L13.5-1.35ZM26.4-2.05L18.3 0.05Q19.65-6.6 20.9-12.95L20.9-12.95Q21.35-15.65 21.9-18.57 22.45-21.5 22.92-24.38 23.4-27.25 23.82-29.93 24.25-32.6 24.5-34.8L24.5-34.8Q27.35-35.7 30.65-36.13 33.95-36.55 37.2-36.55L37.2-36.55Q39.15-36.55 40.42-36.1 41.7-35.65 42.42-34.83 43.15-34 43.45-32.9 43.75-31.8 43.75-30.45L43.75-30.45Q43.75-28.45 43.05-26.53 42.35-24.6 41.17-22.88 40-21.15 38.47-19.73 36.95-18.3 35.2-17.4L35.2-17.4Q36.1-15.4 37.12-13.03 38.15-10.65 39.05-8.5L39.05-8.5Q40.05-6 41.1-3.5L41.1-3.5 33.35-0.8Q32.35-4 31.55-6.8L31.55-6.8Q31.2-7.95 30.85-9.18 30.5-10.4 30.2-11.5 29.9-12.6 29.7-13.48 29.5-14.35 29.45-14.9L29.45-14.9 28.8-14.7Q28.5-13.1 28.07-10.95 27.65-8.8 27.3-6.8L27.3-6.8Q26.85-4.45 26.4-2.05L26.4-2.05ZM31.65-29.6L30.05-21.65Q31-21.75 32.37-22.45 33.75-23.15 35-24.13 36.25-25.1 37.15-26.15 38.05-27.2 38.05-28L38.05-28Q38.05-28.55 37.7-28.88 37.35-29.2 36.72-29.38 36.1-29.55 35.35-29.6 34.6-29.65 33.8-29.65L33.8-29.65Q33.25-29.65 32.67-29.63 32.1-29.6 31.65-29.6L31.65-29.6ZM48.8-1Q48.34-1 47.02-0.88 45.7-0.75 44.3-0.58 42.9-0.4 41.77-0.25 40.65-0.1 40.55-0.05L40.55-0.05Q41.05-2.2 41.57-4.83 42.09-7.45 42.65-10.33 43.2-13.2 43.7-16.15 44.2-19.1 44.65-21.85L44.65-21.85Q45.7-28.25 46.75-35L46.75-35 54.55-36.25Q53.4-29.55 52.3-23.1L52.3-23.1Q51.84-20.35 51.37-17.4 50.9-14.45 50.42-11.55 49.95-8.65 49.55-5.93 49.15-3.2 48.8-1L48.8-1ZM58.89-1.65L50.24 0.05Q51.74-6.7 53.09-13.15L53.09-13.15Q53.64-15.85 54.24-18.85 54.84-21.85 55.39-24.75 55.94-27.65 56.44-30.35 56.94-33.05 57.29-35.3L57.29-35.3Q58.74-35.75 60.14-36.08 61.54-36.4 63.02-36.65 64.49-36.9 65.79-36.9L65.79-36.9Q68.04-36.9 69.57-36.15 71.09-35.4 72.04-34.13 72.99-32.85 73.39-31.15 73.79-29.45 73.79-27.5L73.79-27.5Q73.79-24.7 72.77-22.1 71.74-19.5 70.02-17.48 68.29-15.45 66.07-14.25 63.84-13.05 61.44-13.05L61.44-13.05 60.89-13.05Q60.49-11.35 60.14-9.35 59.79-7.35 59.54-5.65L59.54-5.65Q59.19-3.65 58.89-1.65L58.89-1.65ZM64.19-30.85Q63.64-27.55 63.09-24.6 62.54-21.65 61.89-18.3L61.89-18.3Q62.69-18.5 63.57-19.23 64.44-19.95 65.19-21.13 65.94-22.3 66.39-23.85 66.84-25.4 66.84-27.1L66.84-27.1Q66.84-28.95 66.02-29.9 65.19-30.85 64.19-30.85L64.19-30.85ZM83.14-1.6Q81.59-1.6 79.87-1.5 78.14-1.4 76.39-1.2 74.64-1 72.97-0.68 71.29-0.35 69.94 0.1L69.94 0.1Q70.24-2.15 70.64-4.9 71.04-7.65 71.56-10.6 72.09-13.55 72.62-16.55 73.14-19.55 73.69-22.3L73.69-22.3Q74.94-28.85 76.34-35.65L76.34-35.65 85.09-36.8Q83.74-31 82.49-25.5L82.49-25.5Q81.94-23.15 81.39-20.63 80.84-18.1 80.34-15.7 79.84-13.3 79.44-11.05 79.04-8.8 78.79-7.05L78.79-7.05Q80.04-7.15 81.47-7.18 82.89-7.2 83.99-7.2L83.99-7.2Q84.04-6.25 84.14-5.33 84.24-4.4 84.37-3.65 84.49-2.9 84.56-2.33 84.64-1.75 84.69-1.55L84.69-1.55Q84.29-1.55 83.92-1.58 83.54-1.6 83.14-1.6L83.14-1.6ZM100.99-2.45L84.84 0.05 91.39-35.5 107.19-36.85Q106.84-35.75 106.59-34.6L106.59-34.6Q106.34-33.65 106.11-32.63 105.89-31.6 105.74-30.8L105.74-30.8Q105.24-30.75 104.31-30.73 103.39-30.7 102.34-30.68 101.29-30.65 100.21-30.65 99.14-30.65 98.34-30.65L98.34-30.65 96.59-21.7Q98.14-21.8 99.49-21.85L99.49-21.85Q100.59-21.9 101.74-21.9 102.89-21.9 103.44-21.95L103.44-21.95Q103.24-20.55 103.06-19.2 102.89-17.85 102.64-16.45L102.64-16.45Q102.14-16.4 101.01-16.38 99.89-16.35 98.74-16.3L98.74-16.3Q97.44-16.25 95.89-16.2L95.89-16.2 94.19-7 101.49-8.15 100.99-2.45ZM133.83-12.55Q133.83-10.5 132.98-8.75 132.13-7 130.68-5.58 129.23-4.15 127.31-3.08 125.38-2 123.26-1.28 121.13-0.55 118.91-0.18 116.68 0.2 114.63 0.2L114.63 0.2Q112.78 0.2 111.18-0.1L111.18-0.1Q113.58-8.85 115.01-17.73 116.43-26.6 117.73-35.6L117.73-35.6Q120.33-36.15 123.13-36.58 125.93-37 128.93-37L128.93-37Q130.18-37 131.58-36.7 132.98-36.4 134.13-35.6 135.28-34.8 136.06-33.5 136.83-32.2 136.83-30.2L136.83-30.2Q136.83-28.3 136.21-26.65 135.58-25 134.61-23.65 133.63-22.3 132.38-21.33 131.13-20.35 129.83-19.85L129.83-19.85Q130.48-19.5 131.18-18.85 131.88-18.2 132.48-17.32 133.08-16.45 133.46-15.25 133.83-14.05 133.83-12.55L133.83-12.55ZM122.38-17.75Q122.18-16.55 122.01-15.63 121.83-14.7 121.68-13.85 121.53-13 121.36-12.08 121.18-11.15 120.98-9.9L120.98-9.9Q121.93-10 123.13-10.25 124.33-10.5 125.43-11.03 126.53-11.55 127.28-12.43 128.03-13.3 128.03-14.55L128.03-14.55Q128.03-15.45 127.56-16.05 127.08-16.65 126.36-17.05 125.63-17.45 124.78-17.63 123.93-17.8 123.18-17.8L123.18-17.8Q122.93-17.8 122.76-17.8 122.58-17.8 122.38-17.75L122.38-17.75ZM124.63-29.85Q124.53-29.3 124.41-28.55 124.28-27.8 124.13-26.98 123.98-26.15 123.81-25.35 123.63-24.55 123.53-23.95L123.53-23.95Q124.63-24.15 125.73-24.5 126.83-24.85 127.71-25.28 128.58-25.7 129.11-26.2 129.63-26.7 129.63-27.3L129.63-27.3Q129.63-28.05 129.18-28.53 128.73-29 128.01-29.3 127.28-29.6 126.51-29.73 125.73-29.85 125.13-29.85L125.13-29.85 124.63-29.85ZM164.53-12.35Q164.53-9.55 163.45-7.28 162.38-5 160.55-3.35 158.73-1.7 156.25-0.8 153.78 0.1 150.93 0.1L150.93 0.1Q148.93 0.1 146.93-0.98 144.93-2.05 143.08-4.4L143.08-4.4 146.78-11.65Q147.13-11 147.83-10.33 148.53-9.65 149.4-9.15 150.28-8.65 151.15-8.33 152.03-8 152.73-8L152.73-8Q153.33-8 153.98-8.2 154.63-8.4 155.18-8.8 155.73-9.2 156.05-9.73 156.38-10.25 156.38-10.95L156.38-10.95Q156.38-12.15 155.6-13.18 154.83-14.2 153.68-15.13 152.53-16.05 151.18-17 149.83-17.95 148.7-19 147.58-20.05 146.78-21.35 145.98-22.65 145.98-24.25L145.98-24.25Q145.98-26.85 147.53-29.1 149.08-31.35 151.4-32.98 153.73-34.6 156.48-35.55 159.23-36.5 161.68-36.5L161.68-36.5Q163.03-36.5 164.23-36.18 165.43-35.85 166.3-35.13 167.18-34.4 167.7-33.3 168.23-32.2 168.23-30.55L168.23-30.55Q168.23-29.85 168.1-29.15 167.98-28.45 167.88-27.65L167.88-27.65 160.63-25.55Q160.73-25.95 160.8-26.35 160.88-26.75 160.88-27.15L160.88-27.15Q160.88-28.65 160.35-29.33 159.83-30 158.98-30L158.98-30Q158.58-30 158-29.7 157.43-29.4 156.85-28.93 156.28-28.45 155.88-27.8 155.48-27.15 155.48-26.4L155.48-26.4Q155.48-25.2 156.15-24.4 156.83-23.6 157.83-22.9 158.83-22.2 160-21.48 161.18-20.75 162.18-19.6 163.18-18.45 163.85-16.73 164.53-15 164.53-12.35L164.53-12.35ZM177.68-1.6Q176.13-1.6 174.4-1.5 172.68-1.4 170.93-1.2 169.18-1 167.5-0.68 165.82-0.35 164.47 0.1L164.47 0.1Q164.78-2.15 165.18-4.9 165.57-7.65 166.1-10.6 166.63-13.55 167.15-16.55 167.68-19.55 168.22-22.3L168.22-22.3Q169.47-28.85 170.88-35.65L170.88-35.65 179.63-36.8Q178.28-31 177.03-25.5L177.03-25.5Q176.47-23.15 175.93-20.63 175.38-18.1 174.88-15.7 174.38-13.3 173.97-11.05 173.57-8.8 173.32-7.05L173.32-7.05Q174.57-7.15 176-7.18 177.43-7.2 178.53-7.2L178.53-7.2Q178.57-6.25 178.68-5.33 178.78-4.4 178.9-3.65 179.03-2.9 179.1-2.33 179.18-1.75 179.22-1.55L179.22-1.55Q178.82-1.55 178.45-1.58 178.07-1.6 177.68-1.6L177.68-1.6ZM187.47-1Q187.02-1 185.7-0.88 184.37-0.75 182.97-0.58 181.57-0.4 180.45-0.25 179.32-0.1 179.22-0.05L179.22-0.05Q179.72-2.2 180.25-4.83 180.77-7.45 181.32-10.33 181.87-13.2 182.37-16.15 182.87-19.1 183.32-21.85L183.32-21.85Q184.37-28.25 185.42-35L185.42-35 193.22-36.25Q192.07-29.55 190.97-23.1L190.97-23.1Q190.52-20.35 190.05-17.4 189.57-14.45 189.1-11.55 188.62-8.65 188.22-5.93 187.82-3.2 187.47-1L187.47-1ZM214.52-25.55Q214.52-22.95 213.77-20.03 213.02-17.1 211.67-14.23 210.32-11.35 208.34-8.72 206.37-6.1 203.87-4.13 201.37-2.15 198.39-0.95 195.42 0.25 192.07 0.25L192.07 0.25Q191.37 0.25 190.67 0.18 189.97 0.1 189.27 0L189.27 0Q190.62-6.9 191.92-13.45L191.92-13.45Q192.42-16.2 192.97-19.18 193.52-22.15 194.02-25.05 194.52-27.95 195-30.6 195.47-33.25 195.77-35.4L195.77-35.4Q197.92-35.8 200.12-36.15 202.32-36.5 204.62-36.5L204.62-36.5Q207.32-36.5 209.19-35.65 211.07-34.8 212.25-33.3 213.42-31.8 213.97-29.8 214.52-27.8 214.52-25.55L214.52-25.55ZM202.72-29.45Q202.17-26.5 201.57-23.8 200.97-21.1 200.37-18.35 199.77-15.6 199.17-12.6 198.57-9.6 198.02-6.05L198.02-6.05Q199.22-6.85 200.34-8.22 201.47-9.6 202.47-11.4 203.47-13.2 204.29-15.2 205.12-17.2 205.72-19.1 206.32-21 206.64-22.65 206.97-24.3 206.97-25.5L206.97-25.5Q206.97-27.35 205.94-28.4 204.92-29.45 202.72-29.45L202.72-29.45ZM227.67-2.45L211.52 0.05 218.07-35.5 233.87-36.85Q233.52-35.75 233.27-34.6L233.27-34.6Q233.02-33.65 232.79-32.63 232.57-31.6 232.42-30.8L232.42-30.8Q231.92-30.75 230.99-30.73 230.07-30.7 229.02-30.68 227.97-30.65 226.89-30.65 225.82-30.65 225.02-30.65L225.02-30.65 223.27-21.7Q224.82-21.8 226.17-21.85L226.17-21.85Q227.27-21.9 228.42-21.9 229.57-21.9 230.12-21.95L230.12-21.95Q229.92-20.55 229.74-19.2 229.57-17.85 229.32-16.45L229.32-16.45Q228.82-16.4 227.69-16.38 226.57-16.35 225.42-16.3L225.42-16.3Q224.12-16.25 222.57-16.2L222.57-16.2 220.87-7 228.17-8.15 227.67-2.45ZM236.47-2.05L228.37 0.05Q229.72-6.6 230.97-12.95L230.97-12.95Q231.42-15.65 231.97-18.57 232.52-21.5 232.99-24.38 233.47-27.25 233.89-29.93 234.32-32.6 234.57-34.8L234.57-34.8Q237.42-35.7 240.72-36.13 244.02-36.55 247.27-36.55L247.27-36.55Q249.22-36.55 250.49-36.1 251.77-35.65 252.49-34.83 253.22-34 253.52-32.9 253.82-31.8 253.82-30.45L253.82-30.45Q253.82-28.45 253.12-26.53 252.42-24.6 251.24-22.88 250.07-21.15 248.54-19.73 247.02-18.3 245.27-17.4L245.27-17.4Q246.17-15.4 247.19-13.03 248.22-10.65 249.12-8.5L249.12-8.5Q250.12-6 251.17-3.5L251.17-3.5 243.42-0.8Q242.42-4 241.62-6.8L241.62-6.8Q241.27-7.95 240.92-9.18 240.57-10.4 240.27-11.5 239.97-12.6 239.77-13.48 239.57-14.35 239.52-14.9L239.52-14.9 238.87-14.7Q238.57-13.1 238.14-10.95 237.72-8.8 237.37-6.8L237.37-6.8Q236.92-4.45 236.47-2.05L236.47-2.05ZM241.72-29.6L240.12-21.65Q241.07-21.75 242.44-22.45 243.82-23.15 245.07-24.13 246.32-25.1 247.22-26.15 248.12-27.2 248.12-28L248.12-28Q248.12-28.55 247.77-28.88 247.42-29.2 246.79-29.38 246.17-29.55 245.42-29.6 244.67-29.65 243.87-29.65L243.87-29.65Q243.32-29.65 242.74-29.63 242.17-29.6 241.72-29.6L241.72-29.6ZM272.51-12.35Q272.51-9.55 271.44-7.28 270.36-5 268.54-3.35 266.71-1.7 264.24-0.8 261.76 0.1 258.91 0.1L258.91 0.1Q256.91 0.1 254.91-0.98 252.91-2.05 251.06-4.4L251.06-4.4 254.76-11.65Q255.11-11 255.81-10.33 256.51-9.65 257.39-9.15 258.26-8.65 259.14-8.33 260.01-8 260.71-8L260.71-8Q261.31-8 261.96-8.2 262.61-8.4 263.16-8.8 263.71-9.2 264.04-9.73 264.36-10.25 264.36-10.95L264.36-10.95Q264.36-12.15 263.59-13.18 262.81-14.2 261.66-15.13 260.51-16.05 259.16-17 257.81-17.95 256.69-19 255.56-20.05 254.76-21.35 253.96-22.65 253.96-24.25L253.96-24.25Q253.96-26.85 255.51-29.1 257.06-31.35 259.39-32.98 261.71-34.6 264.46-35.55 267.21-36.5 269.66-36.5L269.66-36.5Q271.01-36.5 272.21-36.18 273.41-35.85 274.29-35.13 275.16-34.4 275.69-33.3 276.21-32.2 276.21-30.55L276.21-30.55Q276.21-29.85 276.09-29.15 275.96-28.45 275.86-27.65L275.86-27.65 268.61-25.55Q268.71-25.95 268.79-26.35 268.86-26.75 268.86-27.15L268.86-27.15Q268.86-28.65 268.34-29.33 267.81-30 266.96-30L266.96-30Q266.56-30 265.99-29.7 265.41-29.4 264.84-28.93 264.26-28.45 263.86-27.8 263.46-27.15 263.46-26.4L263.46-26.4Q263.46-25.2 264.14-24.4 264.81-23.6 265.81-22.9 266.81-22.2 267.99-21.48 269.16-20.75 270.16-19.6 271.16-18.45 271.84-16.73 272.51-15 272.51-12.35L272.51-12.35Z" opacity="1" transform="matrix(1,0,0,1,0,0)" fill="#000000" class="wordmark-text-0" data-fill-palette-color="quaternary" id="text-0"></path></svg></g></svg></g></svg></g></svg></g><g transform="matrix(1,0,0,1,362.6871,5.7077183134697265)"><svg viewBox="0 0 71.39842696091704 71.39842696091704" height="71.39842696091704" width="71.39842696091704"><g><svg xmlns="http://www.w3.org/2000/svg" xmlns:xlink="http://www.w3.org/1999/xlink" version="1.1" x="0" y="0" viewBox="5 5 90 90" enable-background="new 0 0 100 100" xml:space="preserve" height="71.39842696091704" width="71.39842696091704" class="icon-icon-0" data-fill-palette-color="accent" id="icon-0"><path d="M50 5C5 5 5 38.449 5 38.449 5 39.852 6.148 41 7.551 41h84.898C93.852 41 95 39.852 95 38.449 95 38.449 95 5 50 5zM34.34 21.144c0 0-0.34 1.025-1.999 1.025-1.664 0.001-2.006-1.023-2.006-1.023v-0.444c0 0 0.341-1.029 2-1.025 1.665-0.001 2.005 1.023 2.005 1.023L34.34 21.144zM37.063 17.525h-0.447c0 0-1.026-0.342-1.022-2-0.004-1.663 1.022-2.004 1.022-2.004h0.443c0 0 1.026 0.342 1.026 2C38.085 17.183 37.063 17.525 37.063 17.525zM43.34 21.144c0 0-0.339 1.025-1.999 1.025-1.663 0.001-2.005-1.023-2.005-1.023v-0.444c0 0 0.341-1.029 2-1.025 1.665-0.001 2.006 1.023 2.006 1.023L43.34 21.144zM46.062 28.4h-0.446c0 0-1.027-0.341-1.023-2-0.003-1.663 1.023-2.004 1.023-2.004h0.443c0 0 1.027 0.342 1.027 2C47.086 28.059 46.062 28.4 46.062 28.4zM46.062 17.525h-0.446c0 0-1.027-0.342-1.023-2-0.003-1.663 1.023-2.004 1.023-2.004h0.443c0 0 1.027 0.342 1.027 2C47.086 17.183 46.062 17.525 46.062 17.525zM52.34 21.144c0 0-0.338 1.025-1.998 1.025-1.663 0.001-2.006-1.023-2.006-1.023v-0.444c0 0 0.341-1.029 2-1.025 1.666-0.001 2.005 1.023 2.005 1.023L52.34 21.144zM55.063 28.4h-0.446c0 0-1.027-0.341-1.023-2-0.004-1.663 1.023-2.004 1.023-2.004h0.442c0 0 1.025 0.342 1.025 2C56.085 28.059 55.063 28.4 55.063 28.4zM55.063 17.525h-0.446c0 0-1.027-0.342-1.023-2-0.004-1.663 1.023-2.004 1.023-2.004h0.442c0 0 1.025 0.342 1.025 2C56.085 17.183 55.063 17.525 55.063 17.525zM61.34 21.144c0 0-0.339 1.025-1.999 1.025-1.664 0.001-2.007-1.023-2.007-1.023v-0.444c0 0 0.341-1.029 2.001-1.025 1.666-0.001 2.007 1.023 2.007 1.023L61.34 21.144zM64.061 17.525h-0.443c0 0-1.029-0.342-1.025-2-0.002-1.663 1.023-2.004 1.023-2.004h0.443c0 0 1.025 0.342 1.025 2C65.086 17.183 64.061 17.525 64.061 17.525zM70.339 21.144c0 0-0.339 1.025-1.998 1.025-1.663 0.001-2.007-1.023-2.007-1.023v-0.444c0 0 0.342-1.029 2.001-1.025C70 19.675 70.341 20.7 70.341 20.7L70.339 21.144z" fill="#ffffff" data-fill-palette-color="accent"></path><path d="M9.351 57.2c-1.403 0-2.551 1.147-2.551 2.55 0 0 0.013 9.15 14.4 14.766V57.2H9.351z" fill="#ffffff" data-fill-palette-color="accent"></path><path d="M57.454 78.593C93.194 76.537 93.2 59.75 93.2 59.75c0-1.402-1.148-2.55-2.55-2.55H57.55v19.613C57.548 77.403 57.509 77.996 57.454 78.593z" fill="#ffffff" data-fill-palette-color="accent"></path><path d="M42.263 57.2c-0.31 0.708-0.734 1.881-1.161 3.324-0.855 2.887-1.727 7.212-1.727 12.876 0 0.995-0.805 1.801-1.8 1.801-0.994 0-1.8-0.806-1.8-1.801-0.001-7.717 1.517-13.192 2.645-16.2H24.8v18.552 1.062c-0.006 2.963 0.954 6.356 2.611 9.372 1.651 3.021 3.993 5.648 6.579 7.203C35.716 94.43 37.528 95 39.375 95s3.658-0.57 5.385-1.611c1.722-1.038 3.339-2.547 4.712-4.34 2.321-3.007 3.901-6.814 4.339-10.302 0.083-0.658 0.139-1.309 0.138-1.934V57.2C53.949 57.2 42.277 57.168 42.263 57.2z" fill="#ffffff" data-fill-palette-color="accent"></path><path d="M89.601 44.6c0 0-75.601 0-79.201 0s-3.6 3.6-3.6 3.6c0 0.338 0 0.9 0 1.8 0 3.6 3.6 3.6 3.6 3.6s5.053 0 12.6 0h13.15 6.45 13.151c16.831 0 32.271 0 33.85 0 3.6 0 3.6-3.6 3.6-3.6 0-0.338 0-0.9 0-1.8C93.2 44.6 89.601 44.6 89.601 44.6z" fill="#ffffff" data-fill-palette-color="accent"></path></svg></g></svg></g></svg></g><defs></defs></svg><rect width="395.52" height="75.45641882047373" fill="none" stroke="none" visibility="hidden"></rect></g></svg></g></svg>