<svg xmlns="http://www.w3.org/2000/svg" version="1.1" xmlns:xlink="http://www.w3.org/1999/xlink" xmlns:svgjs="http://svgjs.dev/svgjs" width="1500" height="1500" viewBox="0 0 1500 1500"><rect width="1500" height="1500" fill="#ffffff"></rect><g transform="matrix(0.6666666666666666,0,0,0.6666666666666666,249.39393939393932,674.7345182576921)"><svg viewBox="0 0 396 60" data-background-color="#ffffff" preserveAspectRatio="xMidYMid meet" height="227" width="1500" xmlns="http://www.w3.org/2000/svg" xmlns:xlink="http://www.w3.org/1999/xlink"><g id="tight-bounds" transform="matrix(1,0,0,1,0.2400000000000091,-0.14935786897117964)"><svg viewBox="0 0 395.52 60.298715737942366" height="60.298715737942366" width="395.52"><g><svg viewBox="0 0 481.16000526343964 73.3549008440711" height="60.298715737942366" width="395.52"><g transform="matrix(1,0,0,1,85.64000526343966,10.658431082320767)"><svg viewBox="0 0 395.52 52.03803867942956" height="52.03803867942956" width="395.52"><g id="textblocktransform"><svg viewBox="0 0 395.52 52.03803867942956" height="52.03803867942956" width="395.52" id="textblock"><g><svg viewBox="0 0 395.52 52.03803867942956" height="52.03803867942956" width="395.52"><g transform="matrix(1,0,0,1,0,0)"><svg width="395.52" viewBox="3.25 -33.13 255.92000000000002 33.68" height="52.03803867942956" data-palette-color="#8d021f"><path d="M7.28 0L3.25 0 4.48-31.95 10.9-31.95 18.48-8.85 18.82-8.85 26.4-31.95 32.85-31.95 34.08 0 30.05 0 29.6-13.48 29.18-27.63 28.73-27.63 20.83-3.68 16.5-3.68 8.6-27.63 8.15-27.63 7.7-13.45 7.28 0ZM59.12 0L55.1 0 55.27-5.93 55.12-6.55 55.12-14.33 55.15-15.75Q55.15-18.73 53.64-20.15 52.12-21.58 48.85-21.58L48.85-21.58Q46.22-21.58 44.04-20.83 41.85-20.08 40.15-19.07L40.15-19.07 40.52-22.53Q41.47-23.1 42.79-23.66 44.1-24.23 45.79-24.6 47.47-24.98 49.5-24.98L49.5-24.98Q52.12-24.98 53.96-24.34 55.8-23.7 56.94-22.5 58.07-21.3 58.6-19.6 59.12-17.9 59.12-15.8L59.12-15.8 59.12 0ZM46.7 0.53L46.7 0.53Q43.07 0.53 41.14-1.24 39.2-3 39.2-6.28L39.2-6.28 39.2-7Q39.2-10.38 41.29-12.04 43.37-13.7 47.92-14.35L47.92-14.35 55.65-15.45 55.87-12.5 48.42-11.43Q45.62-11.03 44.42-10.06 43.22-9.1 43.22-7.23L43.22-7.23 43.22-6.83Q43.22-4.9 44.41-3.88 45.6-2.85 47.97-2.85L47.97-2.85Q50.07-2.85 51.57-3.58 53.07-4.3 54-5.53 54.92-6.75 55.25-8.25L55.25-8.25 55.87-5.5 55.1-5.5Q54.75-3.9 53.79-2.53 52.82-1.15 51.1-0.31 49.37 0.53 46.7 0.53ZM86.02 0L81.17 0 71.52-11.38 68.95-11.38 68.95-14.53 71.52-14.53 80.77-24.4 85.57-24.4 74.5-12.63 74.5-13.6 86.02 0ZM69.35 0L65.32 0 65.32-33.13 69.35-33.13 69.35 0ZM100.29 0.55L100.29 0.55Q94.72 0.55 91.89-2.18 89.07-4.9 89.07-9.98L89.07-9.98 89.07-14.33Q89.07-19.48 91.69-22.26 94.32-25.05 99.37-25.05L99.37-25.05Q102.77-25.05 105.04-23.79 107.32-22.53 108.47-20.2 109.62-17.88 109.62-14.65L109.62-14.65 109.62-13.75Q109.62-12.95 109.56-12.15 109.49-11.35 109.39-10.58L109.39-10.58 105.67-10.58Q105.72-11.78 105.73-12.85 105.74-13.93 105.74-14.83L105.74-14.83Q105.74-17.05 105.03-18.59 104.32-20.13 102.91-20.94 101.49-21.75 99.37-21.75L99.37-21.75Q96.22-21.75 94.64-19.93 93.07-18.1 93.07-14.7L93.07-14.7 93.07-12.38 93.09-11.88 93.09-9.55Q93.09-8.03 93.54-6.8 93.99-5.58 94.96-4.69 95.92-3.8 97.41-3.34 98.89-2.88 100.94-2.88L100.94-2.88Q103.32-2.88 105.37-3.5 107.42-4.13 109.22-5.2L109.22-5.2 108.84-1.7Q107.22-0.68 105.07-0.06 102.92 0.55 100.29 0.55ZM108.54-10.58L91.19-10.58 91.19-13.63 108.54-13.63 108.54-10.58ZM130.21-31.95L130.21 0 126.06 0 126.06-31.95 130.21-31.95ZM146.21 0.5L146.21 0.5Q143.39 0.5 141.66-0.35 139.94-1.2 139.16-2.93 138.39-4.65 138.39-7.23L138.39-7.23 138.39-22.63 142.39-22.63 142.39-7.7Q142.39-5.3 143.49-4.16 144.59-3.03 147.19-3.03L147.19-3.03Q148.66-3.03 150.02-3.35 151.39-3.68 152.59-4.28L152.59-4.28 152.21-0.8Q151.04-0.2 149.46 0.15 147.89 0.5 146.21 0.5ZM151.96-20.8L134.39-20.8 134.39-24.05 152.34-24.05 151.96-20.8ZM142.29-23.65L138.41-23.65 138.39-30.5 142.46-31.03 142.29-23.65ZM172.26-31.95L172.26 0 168.11 0 168.11-31.95 172.26-31.95ZM191.56-31.95L191.56 0 187.41 0 187.41-31.95 191.56-31.95ZM170.48-14.73L170.48-18.23 189.06-18.23 189.06-14.73 170.48-14.73ZM198.33-24.4L202.35-24.4 202.35-9.22Q202.35-7.3 202.89-5.86 203.43-4.42 204.65-3.64 205.88-2.85 207.95-2.85L207.95-2.85Q209.9-2.85 211.3-3.56 212.7-4.28 213.59-5.53 214.48-6.78 214.8-8.35L214.8-8.35 215.53-5.48 214.65-5.48Q214.28-3.83 213.28-2.46 212.28-1.1 210.59-0.29 208.9 0.53 206.43 0.53L206.43 0.53Q203.55 0.53 201.77-0.56 199.98-1.65 199.15-3.74 198.33-5.83 198.33-8.78L198.33-8.78 198.33-24.4ZM214.63-24.4L218.68-24.4 218.68 0 214.63 0 214.8-5.85 214.63-6.1 214.63-24.4ZM229.13-14.93L229.13-14.93 228.2-18.05 229.2-18.1Q230-21.2 231.95-22.99 233.9-24.78 237.13-24.78L237.13-24.78Q237.93-24.78 238.56-24.65 239.2-24.53 239.7-24.35L239.7-24.35 239.95-20.43Q239.33-20.63 238.56-20.75 237.8-20.88 236.88-20.88L236.88-20.88Q234.13-20.88 232.09-19.35 230.05-17.82 229.13-14.93ZM229.33 0L225.28 0 225.28-24.4 229.23-24.4 229.03-17.2 229.33-16.9 229.33 0ZM252.8 0.5L252.8 0.5Q249.97 0.5 248.25-0.35 246.52-1.2 245.75-2.93 244.97-4.65 244.97-7.23L244.97-7.23 244.97-22.63 248.97-22.63 248.97-7.7Q248.97-5.3 250.07-4.16 251.17-3.03 253.77-3.03L253.77-3.03Q255.25-3.03 256.61-3.35 257.97-3.68 259.17-4.28L259.17-4.28 258.8-0.8Q257.62-0.2 256.05 0.15 254.47 0.5 252.8 0.5ZM258.55-20.8L240.97-20.8 240.97-24.05 258.92-24.05 258.55-20.8ZM248.87-23.65L245-23.65 244.97-30.5 249.05-31.03 248.87-23.65Z" opacity="1" transform="matrix(1,0,0,1,0,0)" fill="#8d021f" class="wordmark-text-0" data-fill-palette-color="primary" id="text-0"></path></svg></g></svg></g></svg></g></svg></g><g><svg viewBox="0 0 73.35507324415465 73.3549008440711" height="73.3549008440711" width="73.35507324415465"><g><svg xmlns="http://www.w3.org/2000/svg" xml:space="preserve" viewBox="4.999788463074158 4.999999982786475 90.00021153692585 90.00000001721352" x="0" y="0" height="73.3549008440711" width="73.35507324415465" class="icon-icon-0" data-fill-palette-color="accent" id="icon-0"><path d="M14 77c-4.962 0-9 4.037-9 9s4.038 9 9 9 9-4.037 9-9-4.038-9-9-9m0.436 15.979l1.271-1.271a0.999 0.999 0 1 0-1.414-1.414l-2 2a1 1 0 0 0-0.238 0.426 6.9 6.9 0 0 1-2.239-1.12l1.892-1.892a0.999 0.999 0 1 0-1.414-1.414l-1.892 1.892a7 7 0 0 1-1.121-2.239 0.97 0.97 0 0 0 0.426-0.238l2-2a0.999 0.999 0 1 0-1.414-1.414l-1.271 1.271C7.249 81.907 10.287 79 14 79c3.86 0 7 3.141 7 7 0 3.713-2.907 6.751-6.564 6.979M32 77c-4.962 0-9 4.037-9 9s4.038 9 9 9 9-4.037 9-9-4.038-9-9-9m0.436 15.979l1.271-1.271a0.999 0.999 0 1 0-1.414-1.414l-2 2a1 1 0 0 0-0.238 0.426 6.9 6.9 0 0 1-2.239-1.12l1.892-1.892a0.999 0.999 0 1 0-1.414-1.414l-1.892 1.892a7 7 0 0 1-1.121-2.239 0.97 0.97 0 0 0 0.426-0.238l2-2a0.999 0.999 0 1 0-1.414-1.414l-1.271 1.271C25.249 81.907 28.287 79 32 79c3.86 0 7 3.141 7 7 0 3.713-2.907 6.751-6.564 6.979M50 77c-4.962 0-9 4.037-9 9s4.038 9 9 9c4.963 0 9-4.037 9-9s-4.037-9-9-9m0.436 15.979l1.271-1.271a0.999 0.999 0 1 0-1.414-1.414l-2 2a1 1 0 0 0-0.238 0.426 6.9 6.9 0 0 1-2.239-1.12l1.892-1.892a0.999 0.999 0 1 0-1.414-1.414l-1.892 1.892a7 7 0 0 1-1.121-2.239 0.97 0.97 0 0 0 0.426-0.238l2-2a0.999 0.999 0 1 0-1.414-1.414l-1.271 1.271C43.249 81.907 46.287 79 50 79c3.859 0 7 3.141 7 7 0 3.713-2.907 6.751-6.564 6.979M68 77c-4.963 0-9 4.037-9 9s4.037 9 9 9 9-4.037 9-9-4.037-9-9-9m0.436 15.979l1.271-1.271a0.999 0.999 0 1 0-1.414-1.414l-2 2a1 1 0 0 0-0.238 0.426 7 7 0 0 1-2.239-1.12l1.892-1.892a0.999 0.999 0 1 0-1.414-1.414l-1.892 1.892a7 7 0 0 1-1.12-2.239 1 1 0 0 0 0.426-0.238l2-2a0.999 0.999 0 1 0-1.414-1.414l-1.271 1.271C61.249 81.907 64.287 79 68 79c3.859 0 7 3.141 7 7 0 3.713-2.907 6.751-6.564 6.979M86 77c-4.963 0-9 4.037-9 9s4.037 9 9 9 9-4.037 9-9-4.037-9-9-9m0.436 15.979l1.271-1.271a0.999 0.999 0 1 0-1.414-1.414l-2 2a1 1 0 0 0-0.238 0.426 7 7 0 0 1-2.239-1.12l1.892-1.892a0.999 0.999 0 1 0-1.414-1.414l-1.892 1.892a7 7 0 0 1-1.12-2.239 1 1 0 0 0 0.426-0.238l2-2a0.999 0.999 0 1 0-1.414-1.414l-1.271 1.271C79.249 81.907 82.287 79 86 79c3.859 0 7 3.141 7 7 0 3.713-2.907 6.751-6.564 6.979" fill="#8d021f" data-fill-palette-color="accent"></path><path d="M23 61c-4.962 0-9 4.037-9 9s4.038 9 9 9 9-4.037 9-9-4.038-9-9-9m0.436 15.979l1.271-1.271a0.999 0.999 0 1 0-1.414-1.414l-2 2a1 1 0 0 0-0.238 0.426 6.9 6.9 0 0 1-2.239-1.12l1.892-1.892a0.999 0.999 0 1 0-1.414-1.414l-1.892 1.892a7 7 0 0 1-1.121-2.239 0.97 0.97 0 0 0 0.426-0.238l2-2a0.999 0.999 0 1 0-1.414-1.414l-1.271 1.271C16.249 65.907 19.287 63 23 63c3.86 0 7 3.141 7 7 0 3.713-2.907 6.751-6.564 6.979M41 61c-4.962 0-9 4.037-9 9s4.038 9 9 9 9-4.037 9-9-4.038-9-9-9m0.436 15.979l1.271-1.271a0.999 0.999 0 1 0-1.414-1.414l-2 2a1 1 0 0 0-0.238 0.426 6.9 6.9 0 0 1-2.239-1.12l1.892-1.892a0.999 0.999 0 1 0-1.414-1.414l-1.892 1.892a7 7 0 0 1-1.121-2.239 0.97 0.97 0 0 0 0.426-0.238l2-2a0.999 0.999 0 1 0-1.414-1.414l-1.271 1.271C34.249 65.907 37.287 63 41 63c3.86 0 7 3.141 7 7 0 3.713-2.907 6.751-6.564 6.979M59 61c-4.963 0-9 4.037-9 9s4.037 9 9 9 9-4.037 9-9-4.037-9-9-9m0.436 15.979l1.271-1.271a0.999 0.999 0 1 0-1.414-1.414l-2 2a1 1 0 0 0-0.238 0.426 7 7 0 0 1-2.239-1.12l1.892-1.892a0.999 0.999 0 1 0-1.414-1.414l-1.892 1.892a7 7 0 0 1-1.12-2.239 1 1 0 0 0 0.426-0.238l2-2a0.999 0.999 0 1 0-1.414-1.414l-1.271 1.271C52.249 65.907 55.287 63 59 63c3.859 0 7 3.141 7 7 0 3.713-2.907 6.751-6.564 6.979M41 29c-4.962 0-9 4.038-9 9s4.038 9 9 9 9-4.038 9-9-4.038-9-9-9m0.436 15.978l1.271-1.271a0.999 0.999 0 1 0-1.414-1.414l-2 2a1 1 0 0 0-0.238 0.426 7 7 0 0 1-2.239-1.121l1.892-1.892a0.999 0.999 0 1 0-1.414-1.414l-1.892 1.892a7 7 0 0 1-1.121-2.239 1 1 0 0 0 0.426-0.238l2-2a0.999 0.999 0 1 0-1.414-1.414l-1.271 1.271C34.249 33.907 37.287 31 41 31c3.86 0 7 3.14 7 7 0 3.713-2.907 6.751-6.564 6.978M50 38c0 4.962 4.037 9 9 9s9-4.038 9-9-4.037-9-9-9-9 4.038-9 9m16 0c0 3.713-2.907 6.751-6.564 6.978l1.271-1.271a0.999 0.999 0 1 0-1.414-1.414l-2 2a1 1 0 0 0-0.238 0.426 7 7 0 0 1-2.239-1.121l1.892-1.892a0.999 0.999 0 1 0-1.414-1.414l-1.892 1.892a6.9 6.9 0 0 1-1.12-2.239 1 1 0 0 0 0.426-0.238l2-2a0.999 0.999 0 1 0-1.414-1.414l-1.271 1.271C52.249 33.907 55.287 31 59 31c3.859 0 7 3.14 7 7" fill="#8d021f" data-fill-palette-color="accent"></path><path d="M32 45c-4.962 0-9 4.038-9 9 0 4.963 4.038 9 9 9s9-4.037 9-9c0-4.962-4.038-9-9-9m0.436 15.979l1.271-1.271a0.999 0.999 0 1 0-1.414-1.414l-2 2a1 1 0 0 0-0.238 0.426 6.9 6.9 0 0 1-2.239-1.12l1.892-1.892a0.999 0.999 0 1 0-1.414-1.414l-1.892 1.892a7 7 0 0 1-1.121-2.239 0.97 0.97 0 0 0 0.426-0.238l2-2a0.999 0.999 0 1 0-1.414-1.414l-1.271 1.271C25.249 49.907 28.287 47 32 47c3.86 0 7 3.14 7 7 0 3.713-2.907 6.751-6.564 6.979M50 45c-4.962 0-9 4.038-9 9 0 4.963 4.038 9 9 9 4.963 0 9-4.037 9-9 0-4.962-4.037-9-9-9m0.436 15.979l1.271-1.271a0.999 0.999 0 1 0-1.414-1.414l-2 2a1 1 0 0 0-0.238 0.426 6.9 6.9 0 0 1-2.239-1.12l1.892-1.892a0.999 0.999 0 1 0-1.414-1.414l-1.892 1.892a7 7 0 0 1-1.121-2.239 0.97 0.97 0 0 0 0.426-0.238l2-2a0.999 0.999 0 1 0-1.414-1.414l-1.271 1.271C43.249 49.907 46.287 47 50 47c3.859 0 7 3.14 7 7 0 3.713-2.907 6.751-6.564 6.979M41 22c0 4.962 4.038 9 9 9 4.963 0 9-4.038 9-9s-4.037-9-9-9c-4.962 0-9 4.038-9 9m9-7c3.859 0 7 3.14 7 7 0 3.713-2.907 6.751-6.564 6.978l1.271-1.271a0.999 0.999 0 1 0-1.414-1.414l-2 2a1 1 0 0 0-0.238 0.426 7 7 0 0 1-2.239-1.121l1.892-1.892a0.999 0.999 0 1 0-1.414-1.414l-1.892 1.892a7 7 0 0 1-1.121-2.239 1 1 0 0 0 0.426-0.238l2-2a0.999 0.999 0 1 0-1.414-1.414l-1.271 1.271C43.249 17.907 46.287 15 50 15M59 54c0 4.963 4.037 9 9 9s9-4.037 9-9c0-4.962-4.037-9-9-9s-9 4.038-9 9m16 0c0 3.713-2.907 6.751-6.564 6.979l1.271-1.271a0.999 0.999 0 1 0-1.414-1.414l-2 2a1 1 0 0 0-0.238 0.426 7 7 0 0 1-2.239-1.12l1.892-1.892a0.999 0.999 0 1 0-1.414-1.414l-1.892 1.892a7 7 0 0 1-1.12-2.239 1 1 0 0 0 0.426-0.238l2-2a0.999 0.999 0 1 0-1.414-1.414l-1.271 1.271C61.249 49.907 64.287 47 68 47c3.859 0 7 3.14 7 7" fill="#8d021f" data-fill-palette-color="accent"></path><path d="M68 70c0 4.963 4.037 9 9 9s9-4.037 9-9-4.037-9-9-9-9 4.037-9 9m16 0c0 3.713-2.907 6.751-6.564 6.979l1.271-1.271a0.999 0.999 0 1 0-1.414-1.414l-2 2a1 1 0 0 0-0.238 0.426 7 7 0 0 1-2.239-1.12l1.892-1.892a0.999 0.999 0 1 0-1.414-1.414l-1.892 1.892a7 7 0 0 1-1.12-2.239 1 1 0 0 0 0.426-0.238l2-2a0.999 0.999 0 1 0-1.414-1.414l-1.271 1.271C70.249 65.907 73.287 63 77 63c3.859 0 7 3.141 7 7M5.485 61.857l5 3a1.003 1.003 0 0 0 1.378-0.351l34-58A1.001 1.001 0 0 0 45 5h-9a1 1 0 0 0-0.878 0.521l-30 55a1 1 0 0 0 0.363 1.336M36.594 7h6.661l-28.53 48.669-3.525-2.114zM10.242 55.312l3.472 2.083-3.065 5.229-3.311-1.986z" fill="#8d021f" data-fill-palette-color="accent"></path></svg></g></svg></g></svg></g><defs></defs></svg><rect width="395.52" height="60.298715737942366" fill="none" stroke="none" visibility="hidden"></rect></g></svg></g></svg>